<svg xmlns="http://www.w3.org/2000/svg" width="892.32" height="127.248" viewBox="0 0 892.32 127.248">
  <g id="Logo" transform="translate(-27.5 -412.336)">
    <path id="Path_7282" data-name="Path 7282" d="M54.032.88a11.3,11.3,0,0,1-8.36-3.08,11.062,11.062,0,0,1-3.08-8.184v-95.04H10.56Q0-105.424,0-114.752t10.56-9.328H97.328q10.56,0,10.56,9.328t-10.56,9.328H65.3v95.04A11.062,11.062,0,0,1,62.216-2.2,11.062,11.062,0,0,1,54.032.88ZM132.176,0q-5.1,0-8.008-2.816t-2.9-7.92V-113.344q0-5.1,2.9-7.92t8.008-2.816h63.536q5.1,0,7.92,2.288a7.91,7.91,0,0,1,2.816,6.512,8.373,8.373,0,0,1-2.816,6.776q-2.816,2.376-7.92,2.376H143.44v34.144h48.752q5.1,0,7.92,2.288a8.113,8.113,0,0,1,2.816,6.688,7.911,7.911,0,0,1-2.816,6.512q-2.816,2.288-7.92,2.288H143.44v36.256h52.272q5.1,0,7.92,2.376A8.373,8.373,0,0,1,206.448-8.8a7.911,7.911,0,0,1-2.816,6.512Q200.816,0,195.712,0ZM235.664,0q-5.1,0-7.92-2.816a10.465,10.465,0,0,1-2.816-7.744V-113.7a11.062,11.062,0,0,1,3.08-8.184,11.062,11.062,0,0,1,8.184-3.08,11.3,11.3,0,0,1,8.36,3.08,11.062,11.062,0,0,1,3.08,8.184v95.04h49.456q10.56,0,10.56,9.328T297.088,0ZM333.52,0q-5.1,0-8.008-2.816t-2.9-7.92V-113.344q0-5.1,2.9-7.92t8.008-2.816h63.536q5.1,0,7.92,2.288a7.911,7.911,0,0,1,2.816,6.512,8.373,8.373,0,0,1-2.816,6.776q-2.816,2.376-7.92,2.376H344.784v34.144h48.752q5.1,0,7.92,2.288a8.113,8.113,0,0,1,2.816,6.688,7.91,7.91,0,0,1-2.816,6.512q-2.816,2.288-7.92,2.288H344.784v36.256h52.272q5.1,0,7.92,2.376A8.373,8.373,0,0,1,407.792-8.8a7.911,7.911,0,0,1-2.816,6.512Q402.16,0,397.056,0ZM437.536,1.056a11.062,11.062,0,0,1-8.184-3.08,11.3,11.3,0,0,1-3.08-8.36v-102.96q0-5.1,2.9-7.92t8.008-2.816h43.3q19.888,0,30.976,9.944t11.088,27.9q0,17.952-11.088,27.984T480.48-48.224h-31.5v37.84a11.3,11.3,0,0,1-3.08,8.36A11.3,11.3,0,0,1,437.536,1.056Zm40.128-66.7q23.408,0,23.408-20.416T477.664-106.48H448.976v40.832Zm119.5,67.232q-18.128,0-31.416-7.744a51.8,51.8,0,0,1-20.5-22.176q-7.216-14.432-7.216-33.792t7.128-33.7a51.2,51.2,0,0,1,20.5-22.088q13.376-7.744,31.5-7.744t31.416,7.744A51.361,51.361,0,0,1,649-95.832q7.128,14.344,7.128,33.7t-7.216,33.792a51.8,51.8,0,0,1-20.5,22.176Q615.12,1.584,597.168,1.584Zm0-18.128q17.072,0,26.664-11.792t9.592-33.792q0-22-9.592-33.7t-26.664-11.7q-17.248,0-26.84,11.7t-9.592,33.7q0,22,9.592,33.792T597.168-16.544Zm181.1,2.288a11.123,11.123,0,0,1,2.112,6.16,8.249,8.249,0,0,1-3.256,6.688,11.787,11.787,0,0,1-7.656,2.64A11.529,11.529,0,0,1,764.1-.088a11.546,11.546,0,0,1-4.312-3.96L736.384-39.6q-3.52-5.632-7.48-7.92a20.431,20.431,0,0,0-10.3-2.288H701.36v39.424a11.486,11.486,0,0,1-2.992,8.36,10.765,10.765,0,0,1-8.1,3.08,11.062,11.062,0,0,1-8.184-3.08,11.3,11.3,0,0,1-3.08-8.36v-102.96q0-5.1,2.9-7.92t8.008-2.816h44q21.12,0,32.12,9.416t11,27.192q0,14.432-8.184,23.672T745.712-51.92a22.189,22.189,0,0,1,8.976,4.4,38.709,38.709,0,0,1,7.568,8.8Zm-47.52-52.976q12.848,0,18.832-4.84t5.984-14.872q0-10.208-5.984-14.872t-18.832-4.664H701.184v39.248ZM838.464.88A11.3,11.3,0,0,1,830.1-2.2a11.062,11.062,0,0,1-3.08-8.184v-95.04H794.992q-10.56,0-10.56-9.328t10.56-9.328H881.76q10.56,0,10.56,9.328t-10.56,9.328H849.728v95.04a11.062,11.062,0,0,1-3.08,8.184A11.062,11.062,0,0,1,838.464.88Z" transform="translate(27.5 538)" fill="#816ff6"/>
  </g>
</svg>
