<svg width="68" height="48" viewBox="0 0 68 48" fill="none" xmlns="http://www.w3.org/2000/svg">
<g clip-path="url(#clip0)">
<path d="M80.3849 42.3206H85.2275C85.7629 42.3085 86.2808 42.1269 86.7065 41.802L90.4636 39.1366C90.4636 39.1366 90.9155 38.8844 90.9821 38.1378C91.0487 37.3912 90.9297 36.8727 90.6088 36.6608L90.627 34.3525C90.4075 33.8802 90.1441 33.4296 89.8401 33.0067C89.6409 32.7018 89.5448 32.3412 89.5657 31.9776L89.602 28.7008C89.6107 28.3245 89.5561 27.9493 89.4406 27.591C89.1443 27.2156 88.8117 26.8703 88.4478 26.56L80.0459 20.4402L81.8397 19.0015C81.8397 19.0015 66.6199 16.5156 49.3217 17.0847C49.3217 17.0847 41.1176 16.7638 32.859 21.9151L26.1641 26.0798C26.1641 26.0798 11.5011 26.0172 2.27802 30.9728C2.27802 30.9728 0.918058 32.1976 0.784887 35.5006C0.651715 38.8037 0.784887 41.5538 1.37205 42.5789C1.95921 43.6039 7.78848 44.0478 7.78848 44.0478L22.6169 44.1002H79.483" fill="url(#paint0_linear)"/>
<path d="M26.8543 30.4501H21.3176C21.0956 30.4501 21.0815 30.3815 21.2873 30.2988L24.5157 28.9994C24.7656 28.9079 25.0285 28.8568 25.2946 28.848H27.161C27.268 28.848 27.3706 28.8905 27.4463 28.9662C27.522 29.0419 27.5645 29.1445 27.5645 29.2516L27.4132 30.4501H26.8543Z" fill="#010101"/>
<path d="M27.2719 44.1024C27.2719 43.9994 27.2396 33.8119 27.2719 30.5492C27.3042 26.9798 30.4478 25.4301 30.4801 25.416L30.5669 25.5976C30.5366 25.6117 27.506 27.1109 27.4737 30.5512C27.4414 33.8119 27.4737 43.9974 27.4737 44.1003L27.2719 44.1024Z" fill="#242628"/>
<path d="M49.5299 26.0394H49.3281V44.1023H49.5299V26.0394Z" fill="#242628"/>
<path d="M31.8945 39.7398C31.0471 39.758 31.0269 39.6067 31.8502 39.4029L32.518 39.2354C33.5135 39.0054 34.5255 38.8543 35.5446 38.7834L61.5413 37.4376C62.3867 37.3932 62.4916 37.7241 61.7733 38.1741L61.5614 38.3052C60.6891 38.7989 59.7166 39.0893 58.7164 39.1547L31.8945 39.7398Z" fill="#1B1A1D"/>
<path d="M78.1998 42.3387H81.973C82.2098 41.0518 82.1525 39.7281 81.8053 38.4666C81.4582 37.205 80.8302 36.0383 79.9684 35.0538C79.1066 34.0693 78.0333 33.2924 76.8288 32.7813C75.6243 32.2703 74.3198 32.0383 73.013 32.1027C71.7061 32.1671 70.4307 32.5262 69.2823 33.1532C68.1339 33.7802 67.1422 34.6588 66.3813 35.7233C65.6205 36.7878 65.1103 38.0106 64.8888 39.3001C64.6674 40.5897 64.7405 41.9127 65.1026 43.17C65.1972 43.4854 65.3077 43.7959 65.4336 44.1001C66.2144 44.1001 66.394 44.1001 66.9711 44.1001L78.1998 44.082V42.3387Z" fill="#010101"/>
<path d="M81.0975 40.5713C81.0979 42.0931 80.647 43.5809 79.8018 44.8464C78.9565 46.1119 77.755 47.0984 76.349 47.6809C74.9431 48.2635 73.396 48.416 71.9034 48.1192C70.4108 47.8224 69.0397 47.0896 67.9636 46.0135C66.8875 44.9374 66.1547 43.5664 65.8579 42.0738C65.5611 40.5812 65.7137 39.034 66.2962 37.6281C66.8788 36.2222 67.8652 35.0207 69.1308 34.1754C70.3963 33.3302 71.884 32.8792 73.4059 32.8796C75.4457 32.8802 77.4018 33.6907 78.8441 35.1331C80.2865 36.5754 81.097 38.5315 81.0975 40.5713V40.5713Z" fill="#010101"/>
<path d="M78.9988 40.5712C78.9992 41.678 78.6713 42.7601 78.0566 43.6805C77.442 44.6009 76.5682 45.3184 75.5457 45.7421C74.5232 46.1659 73.398 46.2769 72.3125 46.061C71.2269 45.8452 70.2298 45.3123 69.4472 44.5296C68.6645 43.747 68.1316 42.7499 67.9158 41.6643C67.6999 40.5788 67.8109 39.4536 68.2346 38.4311C68.6584 37.4086 69.3759 36.5348 70.2963 35.9201C71.2167 35.3055 72.2988 34.9776 73.4056 34.978C74.889 34.978 76.3116 35.5673 77.3606 36.6162C78.4095 37.6652 78.9988 39.0878 78.9988 40.5712V40.5712Z" fill="white"/>
<path d="M17.256 32.8029L17.0825 32.702L17.5829 31.8464C17.8734 31.4116 18.2679 31.0561 18.7305 30.8123C19.1931 30.5685 19.7093 30.444 20.2322 30.4502H27.3589V30.6519H20.2322C19.745 30.6497 19.2646 30.7667 18.833 30.9929C18.4015 31.219 18.0318 31.5474 17.7564 31.9494L17.256 32.8029Z" fill="#242628"/>
<path d="M15.8173 32.0382C14.4675 32.0379 13.1361 32.3521 11.9288 32.956C10.7216 33.56 9.67167 34.437 8.86246 35.5174C8.05325 36.5979 7.50699 37.852 7.26702 39.1804C7.02705 40.5088 7.09998 41.8748 7.48001 43.1701C7.56626 43.4683 7.66933 43.7613 7.78873 44.0478C8.32141 44.0761 8.84401 44.0922 9.34845 44.1003H23.8237C24.3803 42.7795 24.6014 41.3415 24.4674 39.9145C24.3335 38.4875 23.8486 37.1158 23.0559 35.9217C22.2633 34.7276 21.1876 33.748 19.9246 33.0705C18.6616 32.3929 17.2506 32.0383 15.8173 32.0382V32.0382Z" fill="#010101"/>
<path d="M15.7808 48.2649C20.0299 48.2649 23.4745 44.8203 23.4745 40.5712C23.4745 36.3221 20.0299 32.8776 15.7808 32.8776C11.5317 32.8776 8.08716 36.3221 8.08716 40.5712C8.08716 44.8203 11.5317 48.2649 15.7808 48.2649Z" fill="#010101"/>
<path d="M21.3762 40.5712C21.3766 41.6779 21.0488 42.7599 20.4342 43.6803C19.8197 44.6007 18.9459 45.3182 17.9236 45.742C16.9012 46.1657 15.7762 46.2768 14.6907 46.0612C13.6052 45.8455 12.608 45.3128 11.8253 44.5304C11.0426 43.7479 10.5095 42.751 10.2935 41.6655C10.0774 40.5801 10.1881 39.455 10.6115 38.4325C11.0349 37.41 11.7521 36.536 12.6723 35.9211C13.5924 35.3062 14.6743 34.978 15.781 34.978C17.2646 34.978 18.6874 35.5672 19.7367 36.6161C20.7859 37.665 21.3757 39.0876 21.3762 40.5712V40.5712Z" fill="white"/>
<path d="M17.7869 40.5712C17.7869 40.9679 17.6693 41.3556 17.4489 41.6855C17.2285 42.0153 16.9153 42.2724 16.5488 42.4242C16.1823 42.576 15.7791 42.6157 15.39 42.5383C15.0009 42.4609 14.6436 42.2699 14.3631 41.9894C14.0826 41.7089 13.8916 41.3515 13.8142 40.9625C13.7368 40.5734 13.7765 40.1701 13.9283 39.8037C14.0801 39.4372 14.3372 39.1239 14.667 38.9036C14.9968 38.6832 15.3846 38.5656 15.7813 38.5656C16.3132 38.5656 16.8233 38.7769 17.1995 39.153C17.5756 39.5291 17.7869 40.0393 17.7869 40.5712Z" fill="#65676F"/>
<path d="M0.0122797 37.3388C0.0122797 37.3388 -0.0664123 36.9131 0.492503 36.9353H2.71202C2.71202 36.9353 3.35165 36.9635 3.36174 37.7807L2.82502 39.2315C2.82502 39.2315 2.78063 39.3808 2.38111 39.3808H0.333101C0.247209 39.3665 0.16864 39.3237 0.110067 39.2592C0.051495 39.1948 0.0163359 39.1125 0.010262 39.0257C-0.0139509 38.7149 0.0122797 37.3388 0.0122797 37.3388Z" fill="#010101"/>
<path d="M0.912172 34.1931C0.912172 34.1931 0.881905 31.8444 2.15712 30.9647C4.34234 29.4715 8.6139 29.8166 8.6139 29.8166C8.6139 29.8166 9.421 29.9235 9.01745 30.8254L6.68696 33.4223C6.68696 33.4223 6.31367 34.0619 5.14136 34.1951C3.96905 34.3283 0.912172 34.1931 0.912172 34.1931Z" fill="white"/>
<g style="mix-blend-mode:multiply">
<path d="M75.3306 24.4655L75.1974 24.3444L71.9286 21.4066C71.402 20.9344 70.8673 20.3009 70.262 19.9296C69.2854 19.3243 68.0929 19.3707 66.9973 19.2375C65.8673 19.103 64.7354 18.9819 63.6014 18.8743C59.7264 18.48 55.8338 18.284 51.9388 18.2871C49.8969 18.2993 47.8509 18.382 45.821 18.5959C44.3723 18.7297 42.9394 19 41.5414 19.403C40.1814 19.8065 38.1112 20.9001 36.8421 21.5599C35.1165 22.4622 33.4383 23.4522 31.8139 24.526C31.5253 24.7116 31.2368 24.9013 30.9503 25.091L30.2844 25.5208C30.2549 25.5383 30.2306 25.5635 30.2143 25.5937C30.1979 25.6239 30.1901 25.658 30.1916 25.6923C30.1916 26.0393 30.5043 26.0353 30.7283 26.0353H31.8925L34.2493 24.4957C34.621 24.2765 35.0409 24.1517 35.472 24.1326H37.2456C37.4219 24.1331 37.5907 24.2035 37.7152 24.3283C37.8396 24.4531 37.9095 24.6222 37.9095 24.7984V26.0353H74.4871C74.8584 26.0353 75.4032 26.0817 75.7301 25.8335C76.3071 25.4158 75.6978 24.8004 75.3306 24.4655Z" fill="#231F20"/>
</g>
</g>
<defs>
<linearGradient id="paint0_linear" x1="45.8714" y1="24.0116" x2="45.8714" y2="42.0724" gradientUnits="userSpaceOnUse">
<stop offset="0.01" stop-color="#2F3137"/>
<stop offset="0.49" stop-color="#2B2C31"/>
<stop offset="0.97" stop-color="#222225"/>
</linearGradient>
<clipPath id="clip0">
<rect width="68" height="48" fill="white"/>
</clipPath>
</defs>
</svg>
