<svg width="68" height="48" viewBox="0 0 68 48" fill="none" xmlns="http://www.w3.org/2000/svg">
<g clip-path="url(#clip0)">
<path d="M65.7538 13C60.8993 12.9962 56.0615 13.569 51.342 14.7063C46.8701 15.7842 42.542 17.3893 38.4487 19.4879C36.8376 20.3166 35.2832 21.2559 33.7005 22.136C29.9123 24.2386 28.1159 24.743 23.8593 25.0956C23.0693 25.1625 19.4612 25.6489 18.684 25.793C14.8076 26.5038 11.0075 27.581 7.33471 29.0099C5.30162 29.8155 4.13324 30.2967 2.23655 31.3776C1.24574 31.9463 0.177731 32.7029 0.085084 33.9099C-0.00756302 35.1169 0.000157563 36.8643 0.000157563 36.8643C0.000157563 38.9026 0.000157567 41.2393 2.24685 42.1066C4.86927 43.1129 8.16596 43.3522 10.9376 43.3934L28.8237 43.3676L83.2564 43.3908H101.292C101.292 43.3908 104.141 43.5452 105.901 41.8158C106.645 41.0849 108.346 40.8533 109.324 40.4364C110.708 39.8471 110.85 39.4765 111.125 38.1048C111.606 35.6522 112.378 33.5857 111.75 31.1074L111.068 28.418C110.775 27.2548 110.481 26.0924 110.186 24.9309L111.434 22.0074C111.434 22.0074 108.346 21.4927 106.287 21.1066C104.228 20.7206 89.3016 13 65.7538 13Z" fill="#F1F2F2"/>
<path d="M65.7538 13C60.8993 12.9962 56.0615 13.569 51.342 14.7063C46.8701 15.7842 42.542 17.3893 38.4487 19.4879C36.8376 20.3166 35.2832 21.2559 33.7005 22.136C29.9123 24.2386 28.1159 24.743 23.8593 25.0956C23.0693 25.1625 19.4612 25.6489 18.684 25.793C14.8076 26.5038 11.0075 27.581 7.33471 29.0099C5.30162 29.8155 4.13324 30.2967 2.23655 31.3776C1.24574 31.9463 0.177731 32.7029 0.085084 33.9099C-0.00756302 35.1169 0.000157563 36.8643 0.000157563 36.8643C0.000157563 38.9026 0.000157567 41.2393 2.24685 42.1066C4.86927 43.1129 8.16596 43.3522 10.9376 43.3934L28.8237 43.3676L83.2564 43.3908H101.292C101.292 43.3908 104.141 43.5452 105.901 41.8158C106.645 41.0849 108.346 40.8533 109.324 40.4364C110.708 39.8471 110.85 39.4765 111.125 38.1048C111.606 35.6522 112.378 33.5857 111.75 31.1074L111.068 28.418C110.775 27.2548 110.481 26.0924 110.186 24.9309L111.434 22.0074C111.434 22.0074 108.346 21.4927 106.287 21.1066C104.228 20.7206 89.3016 13 65.7538 13Z" fill="url(#paint0_linear)"/>
<path d="M34.7427 38.2849C34.5445 38.3338 72.9596 38.1562 77.1416 36.1617C77.1416 36.1617 78.6857 34.875 69.3567 35.1966C60.0276 35.5183 41.9486 36.5478 34.7427 38.2849Z" fill="#FDFEFF"/>
<path d="M25.0794 29.0125C24.7397 29.0125 24.6934 29.2055 24.8221 29.3419L25.1772 29.6352C25.2776 29.7202 25.6559 30.0238 25.6559 30.0238C25.8528 30.1944 26.1058 30.286 26.3662 30.2812C26.6681 30.2964 26.969 30.2353 27.2412 30.1036L28.8239 29.2904C28.9063 29.2415 29.0813 29.1823 29.0169 29.0691C28.9809 29.0047 28.8393 29.0176 28.7596 29.0125H25.0794Z" fill="#010101"/>
<path d="M92.1326 20.6357C92.0271 20.7567 81.5812 32.7313 78.4235 36.7898C75.1885 40.9821 73.0654 41.0515 73.0448 41.0515H62.4727V23.5078H62.2154V41.0515H32.5992V27.0104C32.5992 27.0104 32.5246 25.914 35.5613 24.1615L35.4327 23.9376C32.2003 25.8034 32.3444 26.9949 32.3444 27.0258V41.0515H25.7922V41.3089H73.0448C73.1349 41.3089 75.2992 41.26 78.6371 36.9493C81.7819 32.8883 92.2304 20.9266 92.336 20.8056L92.1326 20.6357Z" fill="url(#paint1_linear)"/>
<path d="M63.8881 14.7706C53.6635 14.9482 45.0859 17.4986 34.7429 24.3673H35.2139C35.2139 24.3673 38.5106 22.1361 41.6477 22.1361C43.7425 22.1361 43.83 23.9375 43.8223 24.3673H62.5113L63.8881 14.7706Z" fill="#010101"/>
<path d="M5.78783 35.9406C6.28453 35.9406 5.78783 36.7307 5.67975 36.898C5.58436 37.0876 5.44813 37.2537 5.28085 37.3843C5.07728 37.4892 4.84496 37.5245 4.61945 37.4847C4.0934 37.395 3.59041 37.2017 3.13967 36.916C1.35107 35.9174 2.43453 35.9406 2.43453 35.9406H5.78783Z" fill="#010101"/>
<path d="M12.2838 33.5881C10.3253 31.1484 7.97824 30.9348 7.95508 30.9348L7.97309 30.6775C8.07603 30.6775 10.4591 30.9014 12.4845 33.4337L12.2838 33.5881Z" fill="#D8D9DA"/>
<path d="M1.96362 31.5294L3.41767 32.3478C3.94573 32.5463 4.51423 32.613 5.07389 32.5421C5.63355 32.4713 6.16749 32.265 6.62943 31.9412C7.91619 30.9967 9.33421 30.1963 10.7136 29.3831L12.1213 28.611C12.1213 28.611 13.053 28.1787 12.8136 27.7386C12.6026 27.3552 11.707 27.5482 11.3956 27.5945C9.26472 27.9265 2.8309 30.7291 1.96362 31.5294Z" fill="white"/>
<path d="M18.4421 30.0881C16.9523 30.0881 15.4829 30.4351 14.1505 31.1017C12.8181 31.7683 11.6593 32.7361 10.7659 33.9284C9.87261 35.1206 9.26929 36.5046 9.00383 37.9706C8.73837 39.4366 8.81806 40.9443 9.23659 42.3742C9.33289 42.7036 9.44716 43.0275 9.57887 43.3444C10.1656 43.3753 10.7447 43.3933 11.3006 43.4036L27.2925 43.3753C27.4299 43.0489 27.5476 42.7146 27.645 42.3742C28.0652 40.9445 28.1462 39.4365 27.8815 37.97C27.6169 36.5035 27.014 35.119 26.1206 33.9263C25.2272 32.7336 24.068 31.7657 22.7351 31.0994C21.4022 30.4332 19.9323 30.0869 18.4421 30.0881Z" fill="#010101"/>
<path d="M18.4008 48.0001C23.0912 48.0001 26.8935 44.1978 26.8935 39.5074C26.8935 34.8171 23.0912 31.0148 18.4008 31.0148C13.7105 31.0148 9.9082 34.8171 9.9082 39.5074C9.9082 44.1978 13.7105 48.0001 18.4008 48.0001Z" fill="#010101"/>
<path d="M18.4008 45.6837C21.812 45.6837 24.5773 42.9184 24.5773 39.5073C24.5773 36.0961 21.812 33.3308 18.4008 33.3308C14.9897 33.3308 12.2244 36.0961 12.2244 39.5073C12.2244 42.9184 14.9897 45.6837 18.4008 45.6837Z" fill="white"/>
<path d="M20.5638 39.9918C20.8312 38.7976 20.0798 37.6127 18.8856 37.3454C17.6914 37.078 16.5066 37.8293 16.2392 39.0235C15.9719 40.2177 16.7232 41.4025 17.9174 41.6699C19.1116 41.9373 20.2964 41.1859 20.5638 39.9918Z" fill="#A6A8AC"/>
<path d="M93.09 19.5368C92.9767 19.246 92.6679 18.968 92.0863 18.7261C91.6308 18.5383 91.1804 18.3504 90.7172 18.1805C83.4315 15.4964 75.3223 14.8658 67.5554 14.7732V24.3673H78.3642C80.9553 24.3341 83.5385 24.0758 86.0848 23.5952C87.7679 23.2658 89.4999 22.8232 91.008 21.9791C92.0708 21.3897 93.4194 20.3964 93.09 19.5368Z" fill="#010101"/>
</g>
<defs>
<linearGradient id="paint0_linear" x1="55.9898" y1="20.7463" x2="55.9898" y2="43.4629" gradientUnits="userSpaceOnUse">
<stop stop-color="#F1F2F2" stop-opacity="0"/>
<stop offset="0.13" stop-color="#EDEEEE" stop-opacity="0.08"/>
<stop offset="0.37" stop-color="#E1E2E3" stop-opacity="0.29"/>
<stop offset="0.7" stop-color="#CFD0D2" stop-opacity="0.62"/>
<stop offset="1" stop-color="#BCBEC0" stop-opacity="0.95"/>
</linearGradient>
<linearGradient id="paint1_linear" x1="59.0654" y1="34.7361" x2="59.0654" y2="42.8839" gradientUnits="userSpaceOnUse">
<stop stop-color="#D8D9DA"/>
<stop offset="0.39" stop-color="#C9CACC"/>
<stop offset="1" stop-color="#A9ABAE"/>
</linearGradient>
<clipPath id="clip0">
<rect width="68" height="48" fill="white"/>
</clipPath>
</defs>
</svg>
