<svg width="68" height="48" viewBox="0 0 68 48" fill="none" xmlns="http://www.w3.org/2000/svg">
<g clip-path="url(#clip0)">
<path d="M110.255 37.7269L109.11 36.8145C109.11 36.8145 108.846 36.6781 108.846 35.7656V23.5128C108.846 23.5128 106.887 11.1034 104.664 6.09403C104.664 6.09403 104.354 5.00718 102.779 5.00718H38.8829C38.8829 5.00718 36.8836 4.87076 35.2511 5.84133C33.6186 6.81189 18.6285 18.036 18.6285 18.036L5.03608 23.7074C5.03608 23.7074 0.919001 25.2213 1.07554 30.6198H0.344265C0.295832 30.6214 0.248243 30.633 0.204457 30.6537C0.160671 30.6745 0.121624 30.704 0.0897428 30.7405C0.0578618 30.777 0.0338286 30.8197 0.0191371 30.8659C0.00444569 30.912 -0.000589886 30.9608 0.00434343 31.009V39.1447C-0.0100039 39.3245 0.0112751 39.5054 0.0669606 39.677C0.104484 39.7419 0.160559 39.794 0.227976 39.8268C0.355447 39.8939 0.48739 39.9543 0.617097 40.0169L1.73526 40.5648C2.45089 40.9137 3.12178 41.2581 3.83741 41.6069L4.08117 41.7277C4.55444 41.9243 5.06258 42.0232 5.57504 42.0184C5.66896 42.0184 6.767 42.0184 8.66564 42.0184C8.47235 40.5973 8.58546 39.1513 8.99738 37.7775C9.4093 36.4037 10.1105 35.134 11.0538 34.0537C11.9971 32.9734 13.1608 32.1075 14.4665 31.5142C15.7722 30.9208 17.1898 30.6139 18.624 30.6139C20.0582 30.6139 21.4758 30.9208 22.7815 31.5142C24.0873 32.1075 25.2509 32.9734 26.1942 34.0537C27.1375 35.134 27.8387 36.4037 28.2506 37.7775C28.6626 39.1513 28.7757 40.5973 28.5824 42.0184H79.3068C79.2485 41.578 79.2187 41.1343 79.2173 40.69C79.2135 39.3119 79.4931 37.9477 80.0388 36.6822C80.5846 35.4167 81.3848 34.277 82.3896 33.3339C83.3945 32.3908 84.5827 31.6644 85.8802 31.1999C87.1777 30.7354 88.5569 30.5428 89.932 30.6339C91.3071 30.7251 92.6488 31.0981 93.8736 31.7297C95.0985 32.3614 96.1804 33.2382 97.052 34.3057C97.9236 35.3732 98.5664 36.6085 98.9403 37.935C99.3143 39.2614 99.4114 40.6506 99.2257 42.0162H110.553C110.553 42.0162 111 42.0363 111 41.7053V38.9099C111 38.9099 111.002 38.3486 110.255 37.7269Z" fill="#F1F2F2"/>
<path style="mix-blend-mode:multiply" d="M110.255 37.7269L109.11 36.8145C109.11 36.8145 108.846 36.6781 108.846 35.7656V23.5128C108.846 23.5128 106.887 11.1034 104.664 6.09403C104.664 6.09403 104.354 5.00718 102.779 5.00718H38.8829C38.8829 5.00718 36.8836 4.87076 35.2511 5.84133C33.6186 6.81189 18.6285 18.036 18.6285 18.036L5.03608 23.7074C5.03608 23.7074 0.919001 25.2213 1.07554 30.6198H0.344265C0.295832 30.6214 0.248243 30.633 0.204457 30.6537C0.160671 30.6745 0.121624 30.704 0.0897428 30.7405C0.0578618 30.777 0.0338286 30.8197 0.0191371 30.8659C0.00444569 30.912 -0.000589886 30.9608 0.00434343 31.009V39.1447C-0.0100039 39.3245 0.0112751 39.5054 0.0669606 39.677C0.104484 39.7419 0.160559 39.794 0.227976 39.8268C0.355447 39.8939 0.48739 39.9543 0.617097 40.0169L1.73526 40.5648C2.45089 40.9137 3.12178 41.2581 3.83741 41.6069L4.08117 41.7277C4.55444 41.9243 5.06258 42.0232 5.57504 42.0184C5.66896 42.0184 6.767 42.0184 8.66564 42.0184C8.47235 40.5973 8.58546 39.1513 8.99738 37.7775C9.4093 36.4037 10.1105 35.134 11.0538 34.0537C11.9971 32.9734 13.1608 32.1075 14.4665 31.5142C15.7722 30.9208 17.1898 30.6139 18.624 30.6139C20.0582 30.6139 21.4758 30.9208 22.7815 31.5142C24.0873 32.1075 25.2509 32.9734 26.1942 34.0537C27.1375 35.134 27.8387 36.4037 28.2506 37.7775C28.6626 39.1513 28.7757 40.5973 28.5824 42.0184H79.3068C79.2485 41.578 79.2187 41.1343 79.2173 40.69C79.2135 39.3119 79.4931 37.9477 80.0388 36.6822C80.5846 35.4167 81.3848 34.277 82.3896 33.3339C83.3945 32.3908 84.5827 31.6644 85.8802 31.1999C87.1777 30.7354 88.5569 30.5428 89.932 30.6339C91.3071 30.7251 92.6488 31.0981 93.8736 31.7297C95.0985 32.3614 96.1804 33.2382 97.052 34.3057C97.9236 35.3732 98.5664 36.6085 98.9403 37.935C99.3143 39.2614 99.4114 40.6506 99.2257 42.0162H110.553C110.553 42.0162 111 42.0363 111 41.7053V38.9099C111 38.9099 111.002 38.3486 110.255 37.7269Z" fill="url(#paint0_linear)"/>
<path d="M0.00439453 33.7211H4.14831C4.14831 33.7211 5.18149 33.6786 5.37158 34.3629C5.56167 35.0472 6.02683 36.9794 6.02683 36.9794C6.02683 36.9794 6.25046 37.4893 5.70703 37.4893H0.00439453V33.7211Z" fill="#231F20"/>
<path d="M22.164 19.4333L35.951 8.25164C36.7438 7.60067 37.73 7.23101 38.7554 7.20056H48.0294C48.0294 7.20056 49.038 7.08427 48.8837 8.28742C48.7294 9.49056 47.2132 19.6278 47.2132 19.6278C47.2132 19.6278 47.0186 20.6879 45.4666 20.6879H22.6918C22.5231 20.7072 22.3525 20.6766 22.2011 20.5998C22.0496 20.5231 21.924 20.4037 21.8398 20.2562C21.6765 19.9432 21.9404 19.6323 22.164 19.4333Z" fill="#231F20"/>
<path d="M51.6008 8.23152V19.5898C51.6008 19.5898 51.6008 20.6767 52.3791 20.6879C53.1573 20.699 98.633 20.6879 98.633 20.6879C98.633 20.6879 100.751 20.5805 100.827 18.9681C100.903 17.3557 99.7087 9.20209 99.7087 9.20209C99.7087 9.20209 99.4359 7.20057 97.5328 7.20057H53.0298C53.0298 7.20057 51.6008 7.12454 51.6008 8.23152Z" fill="#231F20"/>
<path d="M29.3272 37.6615C29.2578 37.5519 29.307 37.4647 29.4345 37.4647H78.7478C78.8775 37.4647 78.9311 37.5564 78.8663 37.6682L78.5532 38.2251C78.5151 38.284 78.4637 38.3331 78.4031 38.3684C78.3424 38.4038 78.2744 38.4244 78.2043 38.4286H30.0473C29.9768 38.4242 29.9082 38.4043 29.8463 38.3703C29.7844 38.3362 29.7309 38.2889 29.6894 38.2318L29.3272 37.6615Z" fill="white"/>
<path d="M24.2215 25.5361H10.3965V25.7598H24.2215V25.5361Z" fill="#D5D7D8"/>
<path d="M24.3333 20.6879H24.1096V33.0056H24.3333V20.6879Z" fill="#D5D7D8"/>
<path d="M18.6284 30.6462C17.1964 30.6449 15.7806 30.9501 14.4763 31.5411C13.1719 32.1321 12.009 32.9953 11.0658 34.0729C10.1226 35.1504 9.42079 36.4172 9.00758 37.7884C8.59436 39.1595 8.47927 40.6031 8.67004 42.0224H28.5868C28.7801 40.6025 28.6669 39.1576 28.2547 37.7851C27.8425 36.4127 27.141 35.1445 26.1973 34.066C25.2536 32.9876 24.0898 32.1239 22.7841 31.5332C21.4785 30.9425 20.0614 30.6386 18.6284 30.6417V30.6462Z" fill="#010101"/>
<path d="M26.3192 40.694C26.3197 42.2152 25.869 43.7023 25.0242 44.9673C24.1794 46.2324 22.9784 47.2185 21.5731 47.8009C20.1679 48.3833 18.6215 48.5359 17.1295 48.2395C15.6375 47.943 14.2669 47.2107 13.1911 46.1352C12.1153 45.0597 11.3826 43.6894 11.0857 42.1974C10.7888 40.7055 10.9409 39.1591 11.523 37.7536C12.105 36.3482 13.0907 35.1469 14.3555 34.3018C15.6203 33.4566 17.1073 33.0055 18.6285 33.0055C20.6678 33.0055 22.6236 33.8155 24.0659 35.2573C25.5081 36.6991 26.3186 38.6547 26.3192 40.694V40.694Z" fill="#010101"/>
<path d="M24.2214 40.694C24.2214 41.7997 23.8935 42.8807 23.2792 43.8001C22.6649 44.7195 21.7917 45.4361 20.7701 45.8592C19.7485 46.2824 18.6244 46.3931 17.5399 46.1774C16.4554 45.9616 15.4592 45.4292 14.6773 44.6473C13.8954 43.8654 13.3629 42.8692 13.1472 41.7847C12.9315 40.7002 13.0422 39.576 13.4654 38.5545C13.8885 37.5329 14.6051 36.6597 15.5245 36.0454C16.4439 35.431 17.5249 35.1031 18.6306 35.1031C19.3648 35.1031 20.0918 35.2478 20.7701 35.5287C21.4484 35.8097 22.0648 36.2215 22.5839 36.7407C23.1031 37.2598 23.5149 37.8761 23.7959 38.5545C24.0768 39.2328 24.2214 39.9598 24.2214 40.694V40.694Z" fill="white"/>
<path d="M18.6285 42.7C19.7364 42.7 20.6345 41.8018 20.6345 40.694C20.6345 39.5861 19.7364 38.688 18.6285 38.688C17.5207 38.688 16.6226 39.5861 16.6226 40.694C16.6226 41.8018 17.5207 42.7 18.6285 42.7Z" fill="#A6A8AC"/>
<path d="M50.769 42.0268H50.5454V6.82255C50.5471 6.778 50.5397 6.73356 50.5236 6.692C50.5074 6.65044 50.4829 6.61267 50.4514 6.58103C50.3112 6.48109 50.1428 6.42859 49.9706 6.43119H37.7312C36.6287 6.43119 34.6674 7.96532 34.6473 7.98097C34.5176 8.07937 21.737 17.8208 20.3191 18.9904C19.5018 19.677 18.6281 20.2935 17.7071 20.8331C17.649 20.8645 12.1297 23.6822 10.6426 24.3151C9.10844 24.9681 9.05253 25.4758 9.05029 25.4825H8.82666C8.82666 25.4176 8.87586 24.8295 10.5553 24.1138C12.0336 23.4787 17.5483 20.6542 17.602 20.6363C18.5077 20.1058 19.3666 19.4991 20.1693 18.8227C21.5916 17.6531 34.3745 7.90941 34.5042 7.81101C34.5847 7.74616 36.5437 6.21427 37.7245 6.21427H49.9617C50.1922 6.21017 50.4171 6.28515 50.599 6.42672C50.653 6.47857 50.6955 6.54122 50.7236 6.61058C50.7517 6.67994 50.7649 6.75446 50.7623 6.82926L50.769 42.0268Z" fill="#D5D7D8"/>
<path d="M20.8402 25.6659C20.7262 25.7263 20.7396 25.7755 20.8671 25.7755H24.4206C24.4509 25.7755 24.4809 25.7694 24.5088 25.7575C24.5367 25.7455 24.5619 25.728 24.5828 25.7061C24.6037 25.6841 24.62 25.6581 24.6305 25.6297C24.6411 25.6013 24.6457 25.571 24.6442 25.5407V24.5612C24.6442 24.5018 24.6207 24.445 24.5787 24.403C24.5368 24.3611 24.4799 24.3375 24.4206 24.3375H23.6245C23.4695 24.3414 23.3171 24.378 23.1772 24.4449L20.8402 25.6659Z" fill="#231F20"/>
<path d="M2.73942 25.4243H10.5845C10.641 25.4231 10.6968 25.4367 10.7464 25.4638C10.796 25.4909 10.8377 25.5304 10.8673 25.5786C10.8969 25.6267 10.9134 25.6818 10.9152 25.7382C10.9169 25.7947 10.9039 25.8507 10.8774 25.9006C10.7164 26.3479 8.58071 29.0471 8.58071 29.0471C8.58071 29.0471 8.13344 29.6733 6.24598 30.1653C4.35852 30.6573 1.07559 30.6304 1.07559 30.6304C1.07559 30.6304 0.851957 27.598 2.73942 25.4243Z" fill="white"/>
<path d="M30.0092 20.5827C30.0092 20.2249 30.0092 19.2991 30.0092 18.57C30.0092 17.8991 29.4747 17.8522 29.4747 17.8522C29.4747 17.8522 27.6499 17.8522 26.203 17.8522C25.5099 17.8857 24.8502 18.1602 24.3379 18.6282L22.1306 20.7348H23.696V21.276C23.696 21.3946 23.7432 21.5084 23.827 21.5923C23.9109 21.6761 24.0247 21.7233 24.1433 21.7233H29.5664C29.685 21.7233 29.7988 21.6761 29.8827 21.5923C29.9665 21.5084 30.0137 21.3946 30.0137 21.276V20.5827H30.0092Z" fill="#F1F2F2"/>
</g>
<defs>
<linearGradient id="paint0_linear" x1="56.049" y1="13.8697" x2="55.2729" y2="46.0281" gradientUnits="userSpaceOnUse">
<stop offset="0.57" stop-color="#D1D3D4" stop-opacity="0"/>
<stop offset="0.63" stop-color="#CFD1D2" stop-opacity="0.08"/>
<stop offset="0.73" stop-color="#CBCDCE" stop-opacity="0.29"/>
<stop offset="0.87" stop-color="#C3C5C7" stop-opacity="0.62"/>
<stop offset="1" stop-color="#BCBEC0" stop-opacity="0.95"/>
</linearGradient>
<clipPath id="clip0">
<rect width="68" height="48" fill="white"/>
</clipPath>
</defs>
</svg>
