<svg width="37" height="37" viewBox="0 0 37 37" fill="none" xmlns="http://www.w3.org/2000/svg">
<path fill-rule="evenodd" clip-rule="evenodd" d="M18.5 1.5C27.889 1.5 35.5 9.111 35.5 18.5C35.5 27.889 27.889 35.5 18.5 35.5C9.111 35.5 1.5 27.889 1.5 18.5C1.5 9.111 9.111 1.5 18.5 1.5Z" fill="#688AF5"/>
<path d="M18.5 1.5C27.889 1.5 35.5 9.111 35.5 18.5C35.5 27.889 27.889 35.5 18.5 35.5C9.111 35.5 1.5 27.889 1.5 18.5C1.5 9.111 9.111 1.5 18.5 1.5Z" fill="url(#paint0_linear)" stroke="#F7F7F7" stroke-width="3"/>
<path d="M16.1553 23.032V13.0789H19.4092C20.4893 13.0789 21.3005 13.3022 21.8428 13.7488C22.3896 14.1954 22.6631 14.8562 22.6631 15.7312C22.6631 16.196 22.5309 16.6085 22.2666 16.9685C22.0023 17.324 21.6423 17.5997 21.1865 17.7957C21.7243 17.946 22.1481 18.2332 22.458 18.657C22.7725 19.0763 22.9297 19.5776 22.9297 20.1609C22.9297 21.0541 22.6403 21.7559 22.0615 22.2664C21.4827 22.7768 20.6647 23.032 19.6074 23.032H16.1553ZM17.4678 18.3767V21.9587H19.6348C20.2454 21.9587 20.7262 21.8015 21.0771 21.4871C21.4326 21.1681 21.6104 20.7306 21.6104 20.1746C21.6104 18.976 20.9587 18.3767 19.6553 18.3767H17.4678ZM17.4678 17.324H19.4502C20.0244 17.324 20.4824 17.1804 20.8242 16.8933C21.1706 16.6062 21.3438 16.2166 21.3438 15.7244C21.3438 15.1775 21.1842 14.781 20.8652 14.5349C20.5462 14.2843 20.0609 14.1589 19.4092 14.1589H17.4678V17.324Z" fill="white"/>
<defs>
<linearGradient id="paint0_linear" x1="30.945" y1="18.5" x2="1.5" y2="1.5" gradientUnits="userSpaceOnUse">
<stop stop-color="#836AF2"/>
<stop offset="0.63" stop-color="#836AF2"/>
<stop offset="1" stop-color="#6A87F2"/>
</linearGradient>
</defs>
</svg>
