<svg width="1240" height="1240" viewBox="0 0 1240 1240" fill="none" xmlns="http://www.w3.org/2000/svg">
<path d="M0 0H1240V1240H0V0Z" fill="white"/>
<rect width="1240" height="1240" fill="white"/>
<circle cx="620" cy="620" r="535.455" fill="black" fill-opacity="0.09"/>
<circle cx="620" cy="620" r="535.205" stroke="#2869BF" stroke-opacity="0.04" stroke-width="0.5"/>
<circle cx="620" cy="620" r="338.182" fill="black" fill-opacity="0.09"/>
<circle cx="620" cy="620" r="337.932" stroke="#2869BF" stroke-opacity="0.04" stroke-width="0.5"/>
<path fill-rule="evenodd" clip-rule="evenodd" d="M620.25 0H619.75V619.75H0V620.25H619.75V1240H620.25V620.25H1240V619.75H620.25V0Z" fill="#6277A1" fill-opacity="0.1"/>
<path fill-rule="evenodd" clip-rule="evenodd" d="M1.3802e-06 1240C344.359 1240 1042.02 1240 1240 1240C1240 898.515 1240 310 1240 2.21729e-05C895.655 2.21729e-05 1.3802e-06 0 1.3802e-06 0C1.3802e-06 341.472 -2.48436e-06 992 1.3802e-06 1240Z" fill="url(#paint0_radial)"/>
<g clip-path="url(#clip0)">
<path d="M160.277 693.176C158.486 693.269 156.694 692.998 155.011 692.378C153.328 691.758 151.789 690.802 150.487 689.569C149.266 688.301 148.316 686.797 147.696 685.149C147.076 683.501 146.798 681.745 146.88 679.986V568.7H109.367C101.122 568.7 97 565.059 97 557.777C97 550.496 101.122 546.855 109.367 546.855H210.981C219.226 546.855 223.348 550.496 223.348 557.777C223.348 565.059 219.226 568.7 210.981 568.7H173.473V679.986C173.554 681.745 173.276 683.502 172.655 685.15C172.034 686.797 171.083 688.301 169.861 689.569C168.593 690.79 167.089 691.739 165.441 692.359C163.793 692.98 162.036 693.257 160.277 693.176V693.176ZM251.792 692.145C247.81 692.145 244.684 691.046 242.414 688.848C240.143 686.65 239.011 683.558 239.018 679.574V559.426C239.018 555.445 240.15 552.354 242.414 550.152C244.678 547.951 247.804 546.852 251.792 546.855H326.199C330.181 546.855 333.273 547.748 335.474 549.534C336.58 550.46 337.454 551.632 338.026 552.956C338.599 554.28 338.854 555.719 338.772 557.159C338.861 558.645 338.61 560.132 338.039 561.507C337.467 562.881 336.59 564.108 335.474 565.093C333.276 566.948 330.184 567.876 326.199 567.876H264.983V607.856H322.077C326.059 607.856 329.15 608.749 331.352 610.535C332.472 611.495 333.353 612.702 333.925 614.062C334.498 615.421 334.746 616.895 334.65 618.367C334.732 619.807 334.476 621.246 333.904 622.57C333.331 623.893 332.458 625.065 331.352 625.992C329.154 627.778 326.062 628.671 322.077 628.671H264.983V671.124H326.199C330.181 671.124 333.273 672.052 335.474 673.907C336.59 674.892 337.467 676.119 338.039 677.493C338.61 678.868 338.861 680.355 338.772 681.841C338.854 683.281 338.599 684.72 338.026 686.044C337.454 687.368 336.58 688.54 335.474 689.466C333.276 691.252 330.184 692.145 326.199 692.145H251.792ZM372.987 692.145C369.005 692.145 365.914 691.046 363.712 688.848C362.577 687.638 361.7 686.211 361.133 684.652C360.566 683.093 360.322 681.436 360.414 679.78V559.009C360.333 557.251 360.61 555.494 361.23 553.846C361.851 552.199 362.8 550.695 364.021 549.426C365.29 548.205 366.794 547.256 368.442 546.636C370.09 546.016 371.847 545.738 373.606 545.82C375.397 545.726 377.188 545.998 378.871 546.618C380.554 547.238 382.094 548.193 383.396 549.426C384.617 550.695 385.567 552.199 386.187 553.846C386.807 555.494 387.085 557.251 387.003 559.009V670.295H444.921C453.166 670.295 457.288 673.936 457.288 681.218C457.288 688.5 453.166 692.142 444.921 692.145H372.987ZM487.587 692.145C483.605 692.145 480.479 691.046 478.209 688.848C475.938 686.65 474.806 683.558 474.812 679.574V559.426C474.812 555.445 475.944 552.354 478.209 550.152C480.473 547.951 483.599 546.852 487.587 546.855H561.994C565.976 546.855 569.068 547.748 571.269 549.534C572.375 550.461 573.248 551.632 573.821 552.956C574.394 554.28 574.649 555.719 574.567 557.159C574.656 558.645 574.405 560.132 573.834 561.507C573.262 562.881 572.385 564.108 571.269 565.093C569.071 566.948 565.979 567.876 561.994 567.876H500.778V607.856H557.872C561.854 607.856 564.945 608.749 567.147 610.535C568.267 611.495 569.148 612.702 569.72 614.062C570.293 615.421 570.541 616.895 570.445 618.367C570.527 619.807 570.271 621.246 569.699 622.57C569.126 623.893 568.252 625.065 567.147 625.992C564.948 627.778 561.857 628.671 557.872 628.671H500.778V671.124H561.994C565.976 671.124 569.068 672.052 571.269 673.907C572.385 674.892 573.262 676.119 573.834 677.493C574.405 678.868 574.656 680.355 574.567 681.841C574.649 683.281 574.394 684.72 573.821 686.044C573.248 687.368 572.375 688.54 571.269 689.466C569.071 691.252 565.979 692.145 561.994 692.145H487.587ZM609.4 693.382C607.642 693.463 605.885 693.186 604.237 692.566C602.589 691.945 601.085 690.996 599.816 689.775C598.583 688.473 597.627 686.934 597.007 685.251C596.387 683.568 596.115 681.777 596.209 679.986V559.426C596.209 555.445 597.341 552.354 599.605 550.152C601.869 547.951 604.995 546.852 608.983 546.855H659.692C675.22 546.855 687.312 550.736 695.968 558.499C704.625 566.261 708.954 577.151 708.954 591.168C708.954 605.182 704.625 616.104 695.968 623.936C687.312 631.767 675.22 635.681 659.692 635.678H622.803V679.986C622.896 681.777 622.625 683.568 622.005 685.251C621.385 686.934 620.429 688.473 619.196 689.775C617.893 691.009 616.353 691.965 614.669 692.585C612.985 693.205 611.192 693.476 609.4 693.382V693.382ZM656.394 615.28C674.67 615.28 683.808 607.311 683.808 591.374C683.808 575.437 674.67 567.467 656.394 567.463H622.798V615.275L656.394 615.28ZM796.341 694.005C782.188 694.005 769.924 690.982 759.55 684.937C749.146 678.858 740.788 669.818 735.542 658.97C729.909 647.704 727.092 634.515 727.092 619.402C727.092 604.289 729.874 591.135 735.439 579.941C740.666 569.107 749.031 560.095 759.447 554.077C769.89 548.032 782.187 545.009 796.337 545.009C810.487 545.009 822.751 548.032 833.128 554.077C843.503 560.116 851.833 569.12 857.047 579.932C862.612 591.129 865.394 604.282 865.394 619.392C865.394 634.502 862.578 647.692 856.944 658.961C851.698 669.808 843.341 678.848 832.936 684.928C822.559 690.976 810.362 694 796.346 694L796.341 694.005ZM796.341 672.778C809.67 672.778 820.079 668.175 827.568 658.97C835.057 649.765 838.801 636.575 838.801 619.402C838.801 602.228 835.057 589.074 827.568 579.941C820.079 570.808 809.67 566.241 796.341 566.241C782.875 566.241 772.398 570.808 764.909 579.941C757.42 589.074 753.676 602.228 753.676 619.402C753.676 636.575 757.42 649.765 764.909 658.97C772.398 668.175 782.877 672.776 796.346 672.773L796.341 672.778ZM1008.43 675.457C1009.95 677.561 1010.82 680.073 1010.9 682.67C1010.92 684.183 1010.59 685.679 1009.93 687.04C1009.27 688.4 1008.29 689.586 1007.09 690.501C1004.56 692.558 1001.38 693.653 998.123 693.592C995.934 693.592 993.778 693.06 991.841 692.042C989.787 690.956 988.048 689.359 986.791 687.405L959.383 645.776C956.634 641.379 953.714 638.288 950.623 636.502C946.906 634.568 942.746 633.645 938.56 633.823H918.366V679.986C918.461 681.769 918.2 683.552 917.598 685.233C916.997 686.914 916.066 688.458 914.862 689.775C913.617 691.001 912.131 691.954 910.498 692.575C908.865 693.196 907.121 693.471 905.376 693.382C903.617 693.463 901.86 693.186 900.212 692.566C898.564 691.945 897.06 690.996 895.792 689.775C894.558 688.473 893.603 686.934 892.983 685.251C892.362 683.568 892.091 681.777 892.185 679.986V559.426C892.185 555.445 893.317 552.354 895.581 550.152C897.845 547.951 900.971 546.852 904.959 546.855H956.488C972.977 546.855 985.515 550.53 994.104 557.88C1002.69 565.231 1006.99 575.844 1006.99 589.721C1006.99 600.987 1003.79 610.226 997.401 617.439C991.012 624.652 981.98 629.289 970.307 631.35C974.157 632.246 977.752 634.008 980.819 636.502C984.274 639.472 987.262 642.946 989.681 646.806L1008.43 675.457ZM952.778 613.425C962.809 613.425 970.16 611.536 974.832 607.758C979.504 603.98 981.84 598.175 981.84 590.344C981.84 582.375 979.504 576.57 974.832 572.929C970.16 569.289 962.809 567.468 952.778 567.468H918.16V613.425H952.778ZM1078.93 693.176C1077.14 693.27 1075.34 692.999 1073.66 692.379C1071.98 691.759 1070.44 690.803 1069.13 689.569C1067.91 688.301 1066.96 686.797 1066.34 685.149C1065.72 683.501 1065.45 681.745 1065.53 679.986V568.7H1028.02C1019.77 568.7 1015.65 565.059 1015.65 557.777C1015.65 550.496 1019.77 546.855 1028.02 546.855H1129.63C1137.88 546.855 1142 550.496 1142 557.777C1142 565.059 1137.88 568.7 1129.63 568.7H1092.12V679.986C1092.2 681.745 1091.92 683.501 1091.3 685.149C1090.68 686.797 1089.73 688.301 1088.51 689.569C1087.24 690.79 1085.74 691.739 1084.09 692.359C1082.44 692.98 1080.69 693.257 1078.93 693.176V693.176Z" fill="#F7F7F7"/>
</g>
<defs>
<radialGradient id="paint0_radial" cx="0" cy="0" r="1" gradientUnits="userSpaceOnUse" gradientTransform="translate(1240 1240) rotate(-135.24) scale(1761.01 1760.95)">
<stop stop-color="#688AF5"/>
<stop offset="1" stop-color="#816FF6"/>
</radialGradient>
<clipPath id="clip0">
<rect x="97" y="545" width="1045" height="149" fill="white"/>
</clipPath>
</defs>
</svg>
